<svg xmlns="http://www.w3.org/2000/svg" viewBox="0 0 512 512">
  <defs>
    <linearGradient id="g" x1="0" y1="0" x2="1" y2="1">
      <stop offset="0%" stop-color="#7c3aed"/>
      <stop offset="50%" stop-color="#ec4899"/>
      <stop offset="100%" stop-color="#f97316"/>
    </linearGradient>
  </defs>
  <rect width="512" height="512" rx="96" fill="url(#g)"/>
  <ellipse cx="256" cy="396" rx="170" ry="14" fill="rgba(0,0,0,0.18)"/>
  <path d="M 110 150 L 256 170 L 402 150 L 402 380 L 256 360 L 110 380 Z" fill="#fff"/>
  <rect x="252" y="160" width="8" height="210" rx="2" fill="#9333ea"/>
  <g stroke="#a78bfa" stroke-width="8" stroke-linecap="round">
    <line x1="135" y1="210" x2="225" y2="218"/>
    <line x1="135" y1="245" x2="225" y2="253"/>
    <line x1="135" y1="280" x2="200" y2="288"/>
  </g>
  <rect x="280" y="200" width="100" height="60" rx="8" fill="#fbbf24"/>
  <circle cx="300" cy="220" r="6" fill="#fff"/>
  <path d="M 280 250 L 300 232 L 320 245 L 340 225 L 360 248 L 380 240 L 380 260 L 280 260 Z" fill="#10b981"/>
  <path d="M 290 295 L 320 325 L 380 285" stroke="#10b981" stroke-width="10" stroke-linecap="round" stroke-linejoin="round" fill="none"/>
</svg>
